<?xml version="1.0" encoding="UTF-8"?>
<svg width="29px" height="28px" viewBox="0 0 29 28" version="1.1" xmlns="http://www.w3.org/2000/svg" xmlns:xlink="http://www.w3.org/1999/xlink">
    <!-- Generator: sketchtool 54.1 (76490) - https://sketchapp.com -->
    <title>7DFF370A-8D2C-4F53-AD92-70BDF4CEAD5C</title>
    <desc>Created with sketchtool.</desc>
    <g id="Product-Page" stroke="none" stroke-width="1" fill="none" fill-rule="evenodd">
        <g id="Home" transform="translate(-981.000000, -5965.000000)" fill="#161614" fill-rule="nonzero">
            <g id="CTA-ButtonsGroup-Copy" transform="translate(971.000000, 5955.000000)">
                <g id="Icons-/-SignUp-/-github">
                    <path d="M24.3361187,10 C16.4195368,10 10,16.4183498 10,24.3361187 C10,30.6701915 14.1077344,36.0439807 19.8039129,37.9396207 C20.5203865,38.0723272 20.7834259,37.6286265 20.7834259,37.2499733 C20.7834259,36.908117 20.7701314,35.7788047 20.763959,34.5808837 C16.775637,35.4481063 15.9340535,32.8894077 15.9340535,32.8894077 C15.2819153,31.232355 14.3422857,30.7917403 14.3422857,30.7917403 C13.0415704,29.9019647 14.4403319,29.9202444 14.4403319,29.9202444 C15.8799263,30.0213768 16.6379449,31.3975854 16.6379449,31.3975854 C17.916582,33.5892634 19.9916964,32.9556424 20.8097773,32.589334 C20.9384481,31.6627613 21.3099794,31.0303274 21.7199693,30.672328 C18.5357215,30.3098179 15.1883797,29.0805601 15.1883797,23.5873586 C15.1883797,22.0221796 15.7484066,20.7433052 16.6654833,19.7393401 C16.5166334,19.3782545 16.0259274,17.9201429 16.8043624,15.9454487 C16.8043624,15.9454487 18.0082184,15.5601483 20.7478158,17.4149555 C21.8913723,17.0973141 23.1177813,16.9380186 24.3361187,16.9325584 C25.5544562,16.9380186 26.7818148,17.0973141 27.9275077,17.4149555 C30.6637816,15.5601483 31.8659757,15.9454487 31.8659757,15.9454487 C32.6463101,17.9201429 32.1553666,19.3782545 32.0065167,19.7393401 C32.92573,20.7433052 33.4819584,22.0221796 33.4819584,23.5873586 C33.4819584,29.0936172 30.1282069,30.3060197 26.9358875,30.6609328 C27.4500962,31.1058207 27.9082783,31.978266 27.9082783,33.3157784 C27.9082783,35.2339715 27.8916604,36.7777844 27.8916604,37.2499733 C27.8916604,37.6314753 28.1497142,38.0784997 28.876396,37.9377214 C34.5694884,36.0399448 38.672,30.6680548 38.672,24.3361187 C38.672,16.4183498 32.2534129,10 24.3361187,10 Z M15.3693426,30.4221037 C15.3377684,30.4933238 15.2257155,30.5146898 15.1236335,30.4657854 C15.0196522,30.4190175 14.9612518,30.3219209 14.9949626,30.2504635 C15.0258247,30.1771068 15.1381149,30.1566904 15.2418588,30.2058322 C15.3460774,30.2526 15.4054275,30.3506463 15.3693426,30.4221037 Z M16.0745204,31.0513244 C16.0061492,31.1147103 15.8724929,31.0852727 15.781806,30.9850899 C15.688033,30.8851444 15.6704654,30.7514881 15.7397862,30.6871526 C15.810294,30.6237668 15.9399145,30.6534419 16.033925,30.7533873 C16.127698,30.8545197 16.1459778,30.9872264 16.0745204,31.0513244 Z M16.558299,31.8563909 C16.470461,31.9174028 16.3268339,31.8601892 16.2380463,31.7327055 C16.1502082,31.6052216 16.1502082,31.4523359 16.2399455,31.3910866 C16.3289705,31.3298374 16.470461,31.3849143 16.5604356,31.5114486 C16.6480363,31.641069 16.6480363,31.7939546 16.558299,31.8563909 Z M17.3764722,32.7887715 C17.2978928,32.8754228 17.1305257,32.8521574 17.0080272,32.7339323 C16.88268,32.6183182 16.8477822,32.4542748 16.926599,32.3676237 C17.006128,32.2807353 17.1744447,32.3051875 17.2978928,32.4224632 C17.4222905,32.5378397 17.4602745,32.7030702 17.3764722,32.7887715 Z M18.4338817,33.1035327 C18.3992213,33.215823 18.2380266,33.266864 18.0756449,33.2191466 C17.9135006,33.1700048 17.8073828,33.0384852 17.840144,32.925008 C17.8738548,32.8120056 18.0357617,32.7588278 18.1993304,32.8098688 C18.3612373,32.8587733 18.4675925,32.9893433 18.4338817,33.1035327 Z M19.6372581,33.2370462 C19.6412938,33.3552714 19.5036018,33.4533177 19.3331485,33.4554544 C19.1617456,33.4592528 19.0231039,33.3635806 19.0212047,33.2472545 C19.0212047,33.1278422 19.1558106,33.0307456 19.3272135,33.0278968 C19.4976668,33.0245732 19.6372581,33.1195331 19.6372581,33.2370462 Z M20.8194405,33.1917306 C20.8398569,33.3071072 20.7213942,33.4255697 20.5521279,33.4571439 C20.3857105,33.4875311 20.2316378,33.4163111 20.2105092,33.3018843 C20.1898554,33.183659 20.3104546,33.0651963 20.4766347,33.0345718 C20.6461384,33.0051342 20.7978371,33.0744549 20.8194405,33.1917306 Z" id="Shape"/>
                </g>
            </g>
        </g>
    </g>
</svg>